{
	"asset":{
		"version":"2.0",
		"generator":"Created using the official Cinema 4D glTF Exporter 1.000x284978"
	},
	"scenes":[{
		"nodes":[0]
	}],
	"nodes":[{
		"name":"Clouds",
		"translation":[94.06230926513672,
		499.83978271484377,
		59.281620025634769],
		"rotation":[0.0,
		0.0,
		0.0,
		-1.0],
		"scale":[1.0,
		1.0,
		1.0],
		"mesh":0
	}],
	"meshes":[{
		"name":"Clouds",
		"primitives":[{
			"attributes":{
				"POSITION":1
			},
			"indices":0,
			"material":0
		}]
	}],
	"accessors":[{
		"bufferView":0,
		"type":"SCALAR",
		"componentType":5123,
		"count":3846,
		"byteOffset":0,
		"min":[0],
		"max":[940]
	},
	{
		"bufferView":1,
		"type":"VEC3",
		"componentType":5126,
		"count":941,
		"byteOffset":0,
		"min":[-962.3248901367188,
		-301.64111328125,
		-1060.3309326171876],
		"max":[939.4325561523438,
		637.969970703125,
		1010.1326904296875]
	}],
	"bufferViews":[{
		"target":34963,
		"buffer":0,
		"byteOffset":0,
		"byteLength":7692
	},
	{
		"target":34962,
		"buffer":0,
		"byteOffset":7692,
		"byteLength":11292
	}],
	"buffers":[{
		"uri":"data:application/octet-stream;base64,",
		"byteLength":18984
	}],
	"materials":[{
		"pbrMetallicRoughness":{
			"baseColorFactor":[0.8,
			0.8,
			0.8,
			1.0],
			"metallicFactor":0.0,
			"roughnessFactor":0.5
		},
		"emissiveFactor":[0.58,
		0.58,
		0.58],
		"alphaMode":"OPAQUE",
		"doubleSided":true,
		"name":"Mat.3"
	}]
}