{
	"asset":{
		"version":"2.0",
		"generator":"Created using the official Cinema 4D glTF Exporter 1.000x284978"
	},
	"scenes":[{
		"nodes":[0,
		14]
	}],
	"nodes":[{
		"name":"Car 1.1",
		"children":[1,
		2,
		3,
		4,
		5,
		6,
		7,
		8,
		9,
		10,
		11,
		12,
		13]
	},
	{
		"name":"Car 1.1-Mat",
		"mesh":0
	},
	{
		"name":"Car 1.1-Mat.1",
		"mesh":1
	},
	{
		"name":"Car 1.1-Mat.1",
		"mesh":2
	},
	{
		"name":"Car 1.1-Mat.2",
		"mesh":3
	},
	{
		"name":"Car 1.1-Mat.1",
		"mesh":4
	},
	{
		"name":"Car 1.1-Mat.1",
		"mesh":5
	},
	{
		"name":"Car 1.1-Mat.1",
		"mesh":6
	},
	{
		"name":"Car 1.1-Mat.1",
		"mesh":7
	},
	{
		"name":"Car 1.1-Mat.1",
		"mesh":8
	},
	{
		"name":"Car 1.1-Mat.1",
		"mesh":9
	},
	{
		"name":"Car 1.1-Mat",
		"mesh":10
	},
	{
		"name":"Car 1.1-Mat.1",
		"mesh":11
	},
	{
		"name":"Car 1.1-Mat.4",
		"mesh":12
	},
	{
		"name":"Clouds",
		"translation":[94.06230926513672,
		499.83978271484377,
		59.281620025634769],
		"rotation":[0.0,
		0.0,
		0.0,
		-1.0],
		"scale":[1.0,
		1.0,
		1.0],
		"mesh":13
	}],
	"meshes":[{
		"name":"Car 1.1-Mat",
		"primitives":[{
			"attributes":{
				"POSITION":1,
				"NORMAL":2,
				"TEXCOORD_0":3
			},
			"indices":0,
			"material":0
		}]
	},
	{
		"name":"Car 1.1-Mat.1",
		"primitives":[{
			"attributes":{
				"POSITION":5,
				"NORMAL":6,
				"TEXCOORD_0":7
			},
			"indices":4,
			"material":1
		}]
	},
	{
		"name":"Car 1.1-Mat.1",
		"primitives":[{
			"attributes":{
				"POSITION":9,
				"NORMAL":10,
				"TEXCOORD_0":11
			},
			"indices":8,
			"material":2
		}]
	},
	{
		"name":"Car 1.1-Mat.2",
		"primitives":[{
			"attributes":{
				"POSITION":13,
				"NORMAL":14,
				"TEXCOORD_0":15
			},
			"indices":12,
			"material":3
		}]
	},
	{
		"name":"Car 1.1-Mat.1",
		"primitives":[{
			"attributes":{
				"POSITION":17,
				"NORMAL":18,
				"TEXCOORD_0":19
			},
			"indices":16,
			"material":1
		}]
	},
	{
		"name":"Car 1.1-Mat.1",
		"primitives":[{
			"attributes":{
				"POSITION":21,
				"NORMAL":22,
				"TEXCOORD_0":23
			},
			"indices":20,
			"material":4
		}]
	},
	{
		"name":"Car 1.1-Mat.1",
		"primitives":[{
			"attributes":{
				"POSITION":25,
				"NORMAL":26,
				"TEXCOORD_0":27
			},
			"indices":24,
			"material":4
		}]
	},
	{
		"name":"Car 1.1-Mat.1",
		"primitives":[{
			"attributes":{
				"POSITION":29,
				"NORMAL":30,
				"TEXCOORD_0":31
			},
			"indices":28,
			"material":4
		}]
	},
	{
		"name":"Car 1.1-Mat.1",
		"primitives":[{
			"attributes":{
				"POSITION":33,
				"NORMAL":34,
				"TEXCOORD_0":35
			},
			"indices":32,
			"material":1
		}]
	},
	{
		"name":"Car 1.1-Mat.1",
		"primitives":[{
			"attributes":{
				"POSITION":37,
				"NORMAL":38,
				"TEXCOORD_0":39
			},
			"indices":36,
			"material":1
		}]
	},
	{
		"name":"Car 1.1-Mat",
		"primitives":[{
			"attributes":{
				"POSITION":41,
				"NORMAL":42,
				"TEXCOORD_0":43
			},
			"indices":40,
			"material":0
		}]
	},
	{
		"name":"Car 1.1-Mat.1",
		"primitives":[{
			"attributes":{
				"POSITION":45,
				"NORMAL":46,
				"TEXCOORD_0":47
			},
			"indices":44,
			"material":5
		}]
	},
	{
		"name":"Car 1.1-Mat.4",
		"primitives":[{
			"attributes":{
				"POSITION":49,
				"NORMAL":50,
				"TEXCOORD_0":51
			},
			"indices":48,
			"material":6
		}]
	},
	{
		"name":"Clouds",
		"primitives":[{
			"attributes":{
				"POSITION":53
			},
			"indices":52,
			"material":7
		}]
	}],
	"accessors":[{
		"bufferView":0,
		"type":"SCALAR",
		"componentType":5123,
		"count":336,
		"byteOffset":0,
		"min":[0],
		"max":[153]
	},
	{
		"bufferView":1,
		"type":"VEC3",
		"componentType":5126,
		"count":154,
		"byteOffset":0,
		"min":[49.24703598022461,
		416.5390930175781,
		-69.33687591552735],
		"max":[71.87397003173828,
		431.0622253417969,
		4.061174392700195]
	},
	{
		"bufferView":1,
		"type":"VEC3",
		"componentType":5126,
		"count":154,
		"byteOffset":12,
		"min":[-0.9999688267707825,
		-0.9970625638961792,
		-1.0],
		"max":[0.9994375705718994,
		0.9995312690734863,
		1.0]
	},
	{
		"bufferView":1,
		"type":"VEC2",
		"componentType":5126,
		"count":154,
		"byteOffset":24,
		"min":[0.0,
		0.0],
		"max":[1.0,
		1.0]
	},
	{
		"bufferView":2,
		"type":"SCALAR",
		"componentType":5123,
		"count":96,
		"byteOffset":0,
		"min":[0],
		"max":[35]
	},
	{
		"bufferView":3,
		"type":"VEC3",
		"componentType":5126,
		"count":36,
		"byteOffset":0,
		"min":[148.6844024658203,
		382.7368469238281,
		-59.442626953125],
		"max":[219.78782653808595,
		387.5169372558594,
		-5.833077430725098]
	},
	{
		"bufferView":3,
		"type":"VEC3",
		"componentType":5126,
		"count":36,
		"byteOffset":12,
		"min":[0.0,
		-0.9999688267707825,
		-1.0],
		"max":[0.0,
		0.9999688267707825,
		1.0]
	},
	{
		"bufferView":3,
		"type":"VEC2",
		"componentType":5126,
		"count":36,
		"byteOffset":24,
		"min":[0.0,
		0.0],
		"max":[1.0,
		1.0]
	},
	{
		"bufferView":4,
		"type":"SCALAR",
		"componentType":5123,
		"count":48,
		"byteOffset":0,
		"min":[0],
		"max":[25]
	},
	{
		"bufferView":5,
		"type":"VEC3",
		"componentType":5126,
		"count":26,
		"byteOffset":0,
		"min":[212.87734985351563,
		394.70233154296877,
		-47.226295471191409],
		"max":[214.6607666015625,
		403.7536926269531,
		-18.049409866333009]
	},
	{
		"bufferView":5,
		"type":"VEC3",
		"componentType":5126,
		"count":26,
		"byteOffset":12,
		"min":[0.0,
		-1.0,
		-1.0],
		"max":[1.0,
		1.0,
		1.0]
	},
	{
		"bufferView":5,
		"type":"VEC2",
		"componentType":5126,
		"count":26,
		"byteOffset":24,
		"min":[1.0,
		0.5],
		"max":[1.0,
		0.8908978700637817]
	},
	{
		"bufferView":6,
		"type":"SCALAR",
		"componentType":5123,
		"count":432,
		"byteOffset":0,
		"min":[0],
		"max":[155]
	},
	{
		"bufferView":7,
		"type":"VEC3",
		"componentType":5126,
		"count":156,
		"byteOffset":0,
		"min":[213.7615509033203,
		390.9695739746094,
		-68.79086303710938],
		"max":[216.15158081054688,
		408.6788330078125,
		3.5151617527008058]
	},
	{
		"bufferView":7,
		"type":"VEC3",
		"componentType":5126,
		"count":156,
		"byteOffset":12,
		"min":[0.0,
		-1.0,
		-1.0],
		"max":[1.0,
		1.0,
		1.0]
	},
	{
		"bufferView":7,
		"type":"VEC2",
		"componentType":5126,
		"count":156,
		"byteOffset":24,
		"min":[0.0,
		0.0],
		"max":[1.0,
		1.0]
	},
	{
		"bufferView":8,
		"type":"SCALAR",
		"componentType":5123,
		"count":768,
		"byteOffset":0,
		"min":[0],
		"max":[344]
	},
	{
		"bufferView":9,
		"type":"VEC3",
		"componentType":5126,
		"count":345,
		"byteOffset":0,
		"min":[-11.999587059020996,
		390.0872802734375,
		-51.79368209838867],
		"max":[-9.679108619689942,
		408.3687438964844,
		-13.48201847076416]
	},
	{
		"bufferView":9,
		"type":"VEC3",
		"componentType":5126,
		"count":345,
		"byteOffset":12,
		"min":[-1.0,
		-1.0,
		-1.0],
		"max":[0.0,
		1.0,
		1.0]
	},
	{
		"bufferView":9,
		"type":"VEC2",
		"componentType":5126,
		"count":345,
		"byteOffset":24,
		"min":[0.0,
		0.5],
		"max":[0.0,
		0.9776871204376221]
	},
	{
		"bufferView":10,
		"type":"SCALAR",
		"componentType":5123,
		"count":144,
		"byteOffset":0,
		"min":[0],
		"max":[51]
	},
	{
		"bufferView":11,
		"type":"VEC3",
		"componentType":5126,
		"count":52,
		"byteOffset":0,
		"min":[-14.955979347229004,
		397.5528259277344,
		-69.16172790527344],
		"max":[-14.955979347229004,
		409.0497131347656,
		3.8860232830047609]
	},
	{
		"bufferView":11,
		"type":"VEC3",
		"componentType":5126,
		"count":52,
		"byteOffset":12,
		"min":[-1.0,
		0.0,
		0.0],
		"max":[-1.0,
		0.0,
		0.0]
	},
	{
		"bufferView":11,
		"type":"VEC2",
		"componentType":5126,
		"count":52,
		"byteOffset":24,
		"min":[0.0,
		1.0],
		"max":[1.0,
		1.0]
	},
	{
		"bufferView":12,
		"type":"SCALAR",
		"componentType":5123,
		"count":144,
		"byteOffset":0,
		"min":[0],
		"max":[51]
	},
	{
		"bufferView":13,
		"type":"VEC3",
		"componentType":5126,
		"count":52,
		"byteOffset":0,
		"min":[-14.955979347229004,
		397.5528259277344,
		-69.16172790527344],
		"max":[-12.565947532653809,
		409.0497131347656,
		3.8860232830047609]
	},
	{
		"bufferView":13,
		"type":"VEC3",
		"componentType":5126,
		"count":52,
		"byteOffset":12,
		"min":[0.0,
		-1.0,
		-1.0],
		"max":[0.0,
		1.0,
		1.0]
	},
	{
		"bufferView":13,
		"type":"VEC2",
		"componentType":5126,
		"count":52,
		"byteOffset":24,
		"min":[0.0,
		0.0],
		"max":[1.0,
		1.0]
	},
	{
		"bufferView":14,
		"type":"SCALAR",
		"componentType":5123,
		"count":216,
		"byteOffset":0,
		"min":[0],
		"max":[77]
	},
	{
		"bufferView":15,
		"type":"VEC3",
		"componentType":5126,
		"count":78,
		"byteOffset":0,
		"min":[-14.955979347229004,
		390.9695739746094,
		-66.40083312988281],
		"max":[-12.565947532653809,
		396.9446716308594,
		1.125130534172058]
	},
	{
		"bufferView":15,
		"type":"VEC3",
		"componentType":5126,
		"count":78,
		"byteOffset":12,
		"min":[-1.0,
		-1.0,
		-1.0],
		"max":[0.0,
		1.0,
		1.0]
	},
	{
		"bufferView":15,
		"type":"VEC2",
		"componentType":5126,
		"count":78,
		"byteOffset":24,
		"min":[0.0,
		0.0],
		"max":[1.0,
		1.0]
	},
	{
		"bufferView":16,
		"type":"SCALAR",
		"componentType":5123,
		"count":72,
		"byteOffset":0,
		"min":[0],
		"max":[35]
	},
	{
		"bufferView":17,
		"type":"VEC3",
		"componentType":5126,
		"count":36,
		"byteOffset":0,
		"min":[-10.657623291015625,
		413.2878112792969,
		-56.45872116088867],
		"max":[45.415504455566409,
		418.6233215332031,
		-8.816981315612793]
	},
	{
		"bufferView":17,
		"type":"VEC3",
		"componentType":5126,
		"count":36,
		"byteOffset":12,
		"min":[-0.7684375643730164,
		0.639843761920929,
		-0.6930313110351563],
		"max":[0.6510312557220459,
		0.9970625638961792,
		0.6930313110351563]
	},
	{
		"bufferView":17,
		"type":"VEC2",
		"componentType":5126,
		"count":36,
		"byteOffset":24,
		"min":[0.007612956687808037,
		0.49999988079071047],
		"max":[0.2772054672241211,
		0.9518232345581055]
	},
	{
		"bufferView":18,
		"type":"SCALAR",
		"componentType":5123,
		"count":720,
		"byteOffset":0,
		"min":[0],
		"max":[423]
	},
	{
		"bufferView":19,
		"type":"VEC3",
		"componentType":5126,
		"count":424,
		"byteOffset":0,
		"min":[-18.7742977142334,
		386.789306640625,
		-77.43991088867188],
		"max":[217.43917846679688,
		462.8105773925781,
		12.164210319519043]
	},
	{
		"bufferView":19,
		"type":"VEC3",
		"componentType":5126,
		"count":424,
		"byteOffset":12,
		"min":[-1.0,
		-1.0,
		-1.0],
		"max":[1.0,
		1.0,
		1.0]
	},
	{
		"bufferView":19,
		"type":"VEC2",
		"componentType":5126,
		"count":424,
		"byteOffset":24,
		"min":[0.0,
		0.0],
		"max":[1.0,
		1.0]
	},
	{
		"bufferView":20,
		"type":"SCALAR",
		"componentType":5123,
		"count":2880,
		"byteOffset":0,
		"min":[0],
		"max":[575]
	},
	{
		"bufferView":21,
		"type":"VEC3",
		"componentType":5126,
		"count":576,
		"byteOffset":0,
		"min":[16.895048141479493,
		376.6601257324219,
		-74.22573852539063],
		"max":[179.10592651367188,
		408.7488098144531,
		8.950037956237793]
	},
	{
		"bufferView":21,
		"type":"VEC3",
		"componentType":5126,
		"count":576,
		"byteOffset":12,
		"min":[-0.9229375720024109,
		-0.9179375171661377,
		-1.0],
		"max":[0.9229375720024109,
		0.9179375171661377,
		1.0]
	},
	{
		"bufferView":21,
		"type":"VEC2",
		"componentType":5126,
		"count":576,
		"byteOffset":24,
		"min":[0.0,
		0.0],
		"max":[1.0,
		1.0]
	},
	{
		"bufferView":22,
		"type":"SCALAR",
		"componentType":5123,
		"count":2196,
		"byteOffset":0,
		"min":[0],
		"max":[1009]
	},
	{
		"bufferView":23,
		"type":"VEC3",
		"componentType":5126,
		"count":1010,
		"byteOffset":0,
		"min":[-14.447968482971192,
		384.4318542480469,
		-73.11358642578125],
		"max":[214.6502685546875,
		461.99676513671877,
		7.837880611419678]
	},
	{
		"bufferView":23,
		"type":"VEC3",
		"componentType":5126,
		"count":1010,
		"byteOffset":12,
		"min":[-1.0,
		-1.0,
		-1.0],
		"max":[1.0,
		1.0,
		1.0]
	},
	{
		"bufferView":23,
		"type":"VEC2",
		"componentType":5126,
		"count":1010,
		"byteOffset":24,
		"min":[0.0,
		0.0],
		"max":[1.0,
		1.0]
	},
	{
		"bufferView":24,
		"type":"SCALAR",
		"componentType":5123,
		"count":144,
		"byteOffset":0,
		"min":[0],
		"max":[67]
	},
	{
		"bufferView":25,
		"type":"VEC3",
		"componentType":5126,
		"count":68,
		"byteOffset":0,
		"min":[-14.955979347229004,
		397.9237060546875,
		-71.56867980957031],
		"max":[212.02200317382813,
		461.0528869628906,
		6.292980194091797]
	},
	{
		"bufferView":25,
		"type":"VEC3",
		"componentType":5126,
		"count":68,
		"byteOffset":12,
		"min":[-1.0,
		0.0,
		-0.9702500700950623],
		"max":[0.8932812809944153,
		0.9971563220024109,
		0.9702500700950623]
	},
	{
		"bufferView":25,
		"type":"VEC2",
		"componentType":5126,
		"count":68,
		"byteOffset":24,
		"min":[0.0,
		0.0],
		"max":[1.0,
		1.0]
	},
	{
		"bufferView":26,
		"type":"SCALAR",
		"componentType":5123,
		"count":3846,
		"byteOffset":0,
		"min":[0],
		"max":[940]
	},
	{
		"bufferView":27,
		"type":"VEC3",
		"componentType":5126,
		"count":941,
		"byteOffset":0,
		"min":[-121.58170318603516,
		-38.10983657836914,
		-133.96395874023438],
		"max":[118.689453125,
		80.6021728515625,
		127.62181854248047]
	}],
	"bufferViews":[{
		"target":34963,
		"buffer":0,
		"byteOffset":0,
		"byteLength":672
	},
	{
		"target":34962,
		"buffer":0,
		"byteOffset":672,
		"byteLength":4928,
		"byteStride":32
	},
	{
		"target":34963,
		"buffer":1,
		"byteOffset":0,
		"byteLength":192
	},
	{
		"target":34962,
		"buffer":1,
		"byteOffset":192,
		"byteLength":1152,
		"byteStride":32
	},
	{
		"target":34963,
		"buffer":2,
		"byteOffset":0,
		"byteLength":96
	},
	{
		"target":34962,
		"buffer":2,
		"byteOffset":96,
		"byteLength":832,
		"byteStride":32
	},
	{
		"target":34963,
		"buffer":3,
		"byteOffset":0,
		"byteLength":864
	},
	{
		"target":34962,
		"buffer":3,
		"byteOffset":864,
		"byteLength":4992,
		"byteStride":32
	},
	{
		"target":34963,
		"buffer":4,
		"byteOffset":0,
		"byteLength":1536
	},
	{
		"target":34962,
		"buffer":4,
		"byteOffset":1536,
		"byteLength":11040,
		"byteStride":32
	},
	{
		"target":34963,
		"buffer":5,
		"byteOffset":0,
		"byteLength":288
	},
	{
		"target":34962,
		"buffer":5,
		"byteOffset":288,
		"byteLength":1664,
		"byteStride":32
	},
	{
		"target":34963,
		"buffer":6,
		"byteOffset":0,
		"byteLength":288
	},
	{
		"target":34962,
		"buffer":6,
		"byteOffset":288,
		"byteLength":1664,
		"byteStride":32
	},
	{
		"target":34963,
		"buffer":7,
		"byteOffset":0,
		"byteLength":432
	},
	{
		"target":34962,
		"buffer":7,
		"byteOffset":432,
		"byteLength":2496,
		"byteStride":32
	},
	{
		"target":34963,
		"buffer":8,
		"byteOffset":0,
		"byteLength":144
	},
	{
		"target":34962,
		"buffer":8,
		"byteOffset":144,
		"byteLength":1152,
		"byteStride":32
	},
	{
		"target":34963,
		"buffer":9,
		"byteOffset":0,
		"byteLength":1440
	},
	{
		"target":34962,
		"buffer":9,
		"byteOffset":1440,
		"byteLength":13568,
		"byteStride":32
	},
	{
		"target":34963,
		"buffer":10,
		"byteOffset":0,
		"byteLength":5760
	},
	{
		"target":34962,
		"buffer":10,
		"byteOffset":5760,
		"byteLength":18432,
		"byteStride":32
	},
	{
		"target":34963,
		"buffer":11,
		"byteOffset":0,
		"byteLength":4392
	},
	{
		"target":34962,
		"buffer":11,
		"byteOffset":4392,
		"byteLength":32320,
		"byteStride":32
	},
	{
		"target":34963,
		"buffer":12,
		"byteOffset":0,
		"byteLength":288
	},
	{
		"target":34962,
		"buffer":12,
		"byteOffset":288,
		"byteLength":2176,
		"byteStride":32
	},
	{
		"target":34963,
		"buffer":13,
		"byteOffset":0,
		"byteLength":7692
	},
	{
		"target":34962,
		"buffer":13,
		"byteOffset":7692,
		"byteLength":11292
	}],
	"buffers":[{
		"uri":"data:application/octet-stream;base64,",
		"byteLength":5600
	},
	{
		"uri":"data:application/octet-stream;base64,",
		"byteLength":1344
	},
	{
		"uri":"data:application/octet-stream;base64,",
		"byteLength":928
	},
	{
		"uri":"data:application/octet-stream;base64,",
		"byteLength":5856
	},
	{
		"uri":"data:application/octet-stream;base64,",
		"byteLength":12576
	},
	{
		"uri":"data:application/octet-stream;base64,",
		"byteLength":1952
	},
	{
		"uri":"data:application/octet-stream;base64,",
		"byteLength":1952
	},
	{
		"uri":"data:application/octet-stream;base64,",
		"byteLength":2928
	},
	{
		"uri":"data:application/octet-stream;base64,",
		"byteLength":1296
	},
	{
		"uri":"data:application/octet-stream;base64,",
		"byteLength":15008
	},
	{
		"uri":"data:application/octet-stream;base64,",
		"byteLength":24192
	},
	{
		"uri":"data:application/octet-stream;base64,",
		"byteLength":36712
	},
	{
		"uri":"data:application/octet-stream;base64,",
		"byteLength":2464
	},
	{
		"uri":"data:application/octet-stream;base64,",
		"byteLength":18984
	}],
	"materials":[{
		"pbrMetallicRoughness":{
			"baseColorFactor":[0.14,
			0.14,
			0.14,
			1.0],
			"metallicFactor":1.0,
			"roughnessFactor":1.0
		},
		"emissiveFactor":[0.0,
		0.0,
		0.0],
		"alphaMode":"OPAQUE",
		"doubleSided":true,
		"name":"Mat"
	},
	{
		"pbrMetallicRoughness":{
			"baseColorFactor":[0.43529411764705885,
			0.4549019607843137,
			0.4627450980392157,
			1.0],
			"metallicFactor":1.0,
			"roughnessFactor":1.0
		},
		"emissiveFactor":[0.0,
		0.0,
		0.0],
		"alphaMode":"OPAQUE",
		"doubleSided":true,
		"name":"Mat.1"
	},
	{
		"pbrMetallicRoughness":{
			"baseColorFactor":[0.4549019607843137,
			0.5882352941176471,
			0.6588235294117647,
			1.0],
			"metallicFactor":1.0,
			"roughnessFactor":1.0
		},
		"emissiveFactor":[0.0,
		0.0,
		0.0],
		"alphaMode":"OPAQUE",
		"doubleSided":true,
		"name":"Mat.1"
	},
	{
		"pbrMetallicRoughness":{
			"baseColorFactor":[1.0,
			0.45999999999999999,
			0.45999999999999999,
			1.0],
			"metallicFactor":1.0,
			"roughnessFactor":1.0
		},
		"emissiveFactor":[0.0,
		0.0,
		0.0],
		"alphaMode":"OPAQUE",
		"doubleSided":true,
		"name":"Mat.2"
	},
	{
		"pbrMetallicRoughness":{
			"baseColorFactor":[0.5700000000000001,
			0.5700000000000001,
			0.5700000000000001,
			1.0],
			"metallicFactor":0.0,
			"roughnessFactor":0.5
		},
		"emissiveFactor":[0.0,
		0.0,
		0.0],
		"alphaMode":"OPAQUE",
		"doubleSided":true,
		"name":"Mat.1"
	},
	{
		"pbrMetallicRoughness":{
			"baseColorFactor":[0.4823529411764706,
			0.803921568627451,
			0.3294117647058823,
			1.0],
			"metallicFactor":1.0,
			"roughnessFactor":1.0
		},
		"emissiveFactor":[0.0,
		0.0,
		0.0],
		"alphaMode":"OPAQUE",
		"doubleSided":true,
		"name":"Mat.1"
	},
	{
		"pbrMetallicRoughness":{
			"baseColorFactor":[0.8,
			0.8,
			0.8,
			0.08999999999999997],
			"metallicFactor":1.0,
			"roughnessFactor":0.0
		},
		"emissiveFactor":[0.0,
		0.0,
		0.0],
		"alphaMode":"BLEND",
		"doubleSided":true,
		"name":"Mat.4"
	},
	{
		"pbrMetallicRoughness":{
			"baseColorFactor":[0.8,
			0.8,
			0.8,
			1.0],
			"metallicFactor":0.0,
			"roughnessFactor":0.5
		},
		"emissiveFactor":[0.58,
		0.58,
		0.58],
		"alphaMode":"OPAQUE",
		"doubleSided":true,
		"name":"Mat.3"
	}]
}