{
	"asset":{
		"version":"2.0",
		"generator":"Created using the official Cinema 4D glTF Exporter 1.000x284978"
	},
	"scenes":[{
		"nodes":[0]
	}],
	"nodes":[{
		"name":"Car 1",
		"translation":[47.03115463256836,
		-122.35810852050781,
		29.640810012817384],
		"rotation":[0.0,
		0.0,
		0.0,
		-1.0],
		"scale":[1.0,
		1.0,
		1.0],
		"children":[1,
		2,
		3,
		4,
		5,
		6,
		7,
		8,
		9,
		10,
		11,
		12,
		13,
		14]
	},
	{
		"name":"Car 1-Mat.3",
		"mesh":0
	},
	{
		"name":"Car 1-Mat",
		"mesh":1
	},
	{
		"name":"Car 1-Mat.1",
		"mesh":2
	},
	{
		"name":"Car 1-Mat.1",
		"mesh":3
	},
	{
		"name":"Car 1-Mat.2",
		"mesh":4
	},
	{
		"name":"Car 1-Mat.1",
		"mesh":5
	},
	{
		"name":"Car 1-Mat.1",
		"mesh":6
	},
	{
		"name":"Car 1-Mat.1",
		"mesh":7
	},
	{
		"name":"Car 1-Mat.1",
		"mesh":8
	},
	{
		"name":"Car 1-Mat.1",
		"mesh":9
	},
	{
		"name":"Car 1-Mat.1",
		"mesh":10
	},
	{
		"name":"Car 1-Mat",
		"mesh":11
	},
	{
		"name":"Car 1-Mat.1",
		"mesh":12
	},
	{
		"name":"Car 1-Mat.4",
		"mesh":13
	}],
	"meshes":[{
		"name":"Car 1-Mat.3",
		"primitives":[{
			"attributes":{
				"POSITION":1,
				"NORMAL":2,
				"TEXCOORD_0":3
			},
			"indices":0,
			"material":0
		}]
	},
	{
		"name":"Car 1-Mat",
		"primitives":[{
			"attributes":{
				"POSITION":5,
				"NORMAL":6,
				"TEXCOORD_0":7
			},
			"indices":4,
			"material":1
		}]
	},
	{
		"name":"Car 1-Mat.1",
		"primitives":[{
			"attributes":{
				"POSITION":9,
				"NORMAL":10,
				"TEXCOORD_0":11
			},
			"indices":8,
			"material":2
		}]
	},
	{
		"name":"Car 1-Mat.1",
		"primitives":[{
			"attributes":{
				"POSITION":13,
				"NORMAL":14,
				"TEXCOORD_0":15
			},
			"indices":12,
			"material":3
		}]
	},
	{
		"name":"Car 1-Mat.2",
		"primitives":[{
			"attributes":{
				"POSITION":17,
				"NORMAL":18,
				"TEXCOORD_0":19
			},
			"indices":16,
			"material":4
		}]
	},
	{
		"name":"Car 1-Mat.1",
		"primitives":[{
			"attributes":{
				"POSITION":21,
				"NORMAL":22,
				"TEXCOORD_0":23
			},
			"indices":20,
			"material":2
		}]
	},
	{
		"name":"Car 1-Mat.1",
		"primitives":[{
			"attributes":{
				"POSITION":25,
				"NORMAL":26,
				"TEXCOORD_0":27
			},
			"indices":24,
			"material":5
		}]
	},
	{
		"name":"Car 1-Mat.1",
		"primitives":[{
			"attributes":{
				"POSITION":29,
				"NORMAL":30,
				"TEXCOORD_0":31
			},
			"indices":28,
			"material":5
		}]
	},
	{
		"name":"Car 1-Mat.1",
		"primitives":[{
			"attributes":{
				"POSITION":33,
				"NORMAL":34,
				"TEXCOORD_0":35
			},
			"indices":32,
			"material":5
		}]
	},
	{
		"name":"Car 1-Mat.1",
		"primitives":[{
			"attributes":{
				"POSITION":37,
				"NORMAL":38,
				"TEXCOORD_0":39
			},
			"indices":36,
			"material":2
		}]
	},
	{
		"name":"Car 1-Mat.1",
		"primitives":[{
			"attributes":{
				"POSITION":41,
				"NORMAL":42,
				"TEXCOORD_0":43
			},
			"indices":40,
			"material":2
		}]
	},
	{
		"name":"Car 1-Mat",
		"primitives":[{
			"attributes":{
				"POSITION":45,
				"NORMAL":46,
				"TEXCOORD_0":47
			},
			"indices":44,
			"material":1
		}]
	},
	{
		"name":"Car 1-Mat.1",
		"primitives":[{
			"attributes":{
				"POSITION":49,
				"NORMAL":50,
				"TEXCOORD_0":51
			},
			"indices":48,
			"material":6
		}]
	},
	{
		"name":"Car 1-Mat.4",
		"primitives":[{
			"attributes":{
				"POSITION":53,
				"NORMAL":54,
				"TEXCOORD_0":55
			},
			"indices":52,
			"material":7
		}]
	}],
	"accessors":[{
		"bufferView":0,
		"type":"SCALAR",
		"componentType":5123,
		"count":3846,
		"byteOffset":0,
		"min":[0],
		"max":[1594]
	},
	{
		"bufferView":1,
		"type":"VEC3",
		"componentType":5126,
		"count":1595,
		"byteOffset":0,
		"min":[-74.55054473876953,
		211.81005859375,
		-104.32315063476563],
		"max":[165.72061157226563,
		330.5220642089844,
		157.26263427734376]
	},
	{
		"bufferView":1,
		"type":"VEC3",
		"componentType":5126,
		"count":1595,
		"byteOffset":12,
		"min":[-1.0,
		-1.0,
		-1.0],
		"max":[1.0,
		1.0,
		1.0]
	},
	{
		"bufferView":1,
		"type":"VEC2",
		"componentType":5126,
		"count":1595,
		"byteOffset":24,
		"min":[0.0,
		0.0],
		"max":[0.0,
		0.0]
	},
	{
		"bufferView":2,
		"type":"SCALAR",
		"componentType":5123,
		"count":336,
		"byteOffset":0,
		"min":[0],
		"max":[153]
	},
	{
		"bufferView":3,
		"type":"VEC3",
		"componentType":5126,
		"count":154,
		"byteOffset":0,
		"min":[2.2158801555633547,
		166.6192169189453,
		-98.9776840209961],
		"max":[24.84281349182129,
		181.14231872558595,
		-25.579635620117189]
	},
	{
		"bufferView":3,
		"type":"VEC3",
		"componentType":5126,
		"count":154,
		"byteOffset":12,
		"min":[-0.9999688267707825,
		-0.9970625638961792,
		-1.0],
		"max":[0.9994375705718994,
		0.9995312690734863,
		1.0]
	},
	{
		"bufferView":3,
		"type":"VEC2",
		"componentType":5126,
		"count":154,
		"byteOffset":24,
		"min":[0.0,
		0.0],
		"max":[1.0,
		1.0]
	},
	{
		"bufferView":4,
		"type":"SCALAR",
		"componentType":5123,
		"count":96,
		"byteOffset":0,
		"min":[0],
		"max":[35]
	},
	{
		"bufferView":5,
		"type":"VEC3",
		"componentType":5126,
		"count":36,
		"byteOffset":0,
		"min":[101.65324401855469,
		132.8169708251953,
		-89.08343505859375],
		"max":[172.7566680908203,
		137.59703063964845,
		-35.4738883972168]
	},
	{
		"bufferView":5,
		"type":"VEC3",
		"componentType":5126,
		"count":36,
		"byteOffset":12,
		"min":[0.0,
		-1.0,
		-1.0],
		"max":[0.0,
		1.0,
		1.0]
	},
	{
		"bufferView":5,
		"type":"VEC2",
		"componentType":5126,
		"count":36,
		"byteOffset":24,
		"min":[0.0,
		0.0],
		"max":[1.0,
		1.0]
	},
	{
		"bufferView":6,
		"type":"SCALAR",
		"componentType":5123,
		"count":48,
		"byteOffset":0,
		"min":[0],
		"max":[25]
	},
	{
		"bufferView":7,
		"type":"VEC3",
		"componentType":5126,
		"count":26,
		"byteOffset":0,
		"min":[165.84619140625,
		144.78244018554688,
		-76.86710357666016],
		"max":[167.62960815429688,
		153.83380126953126,
		-47.69021987915039]
	},
	{
		"bufferView":7,
		"type":"VEC3",
		"componentType":5126,
		"count":26,
		"byteOffset":12,
		"min":[0.0,
		-1.0,
		-1.0],
		"max":[1.0,
		1.0,
		1.0]
	},
	{
		"bufferView":7,
		"type":"VEC2",
		"componentType":5126,
		"count":26,
		"byteOffset":24,
		"min":[1.0,
		0.5],
		"max":[1.0,
		0.8908978700637817]
	},
	{
		"bufferView":8,
		"type":"SCALAR",
		"componentType":5123,
		"count":432,
		"byteOffset":0,
		"min":[0],
		"max":[155]
	},
	{
		"bufferView":9,
		"type":"VEC3",
		"componentType":5126,
		"count":156,
		"byteOffset":0,
		"min":[166.7303924560547,
		141.04969787597657,
		-98.43167877197266],
		"max":[169.12042236328126,
		158.75894165039063,
		-26.125648498535158]
	},
	{
		"bufferView":9,
		"type":"VEC3",
		"componentType":5126,
		"count":156,
		"byteOffset":12,
		"min":[0.0,
		-1.0,
		-1.0],
		"max":[1.0,
		1.0,
		1.0]
	},
	{
		"bufferView":9,
		"type":"VEC2",
		"componentType":5126,
		"count":156,
		"byteOffset":24,
		"min":[0.0,
		0.0],
		"max":[1.0,
		1.0]
	},
	{
		"bufferView":10,
		"type":"SCALAR",
		"componentType":5123,
		"count":768,
		"byteOffset":0,
		"min":[0],
		"max":[344]
	},
	{
		"bufferView":11,
		"type":"VEC3",
		"componentType":5126,
		"count":345,
		"byteOffset":0,
		"min":[-59.03074264526367,
		140.16738891601563,
		-81.43449401855469],
		"max":[-56.71026611328125,
		158.44883728027345,
		-43.12282943725586]
	},
	{
		"bufferView":11,
		"type":"VEC3",
		"componentType":5126,
		"count":345,
		"byteOffset":12,
		"min":[-1.0,
		-1.0,
		-1.0],
		"max":[0.0,
		1.0,
		1.0]
	},
	{
		"bufferView":11,
		"type":"VEC2",
		"componentType":5126,
		"count":345,
		"byteOffset":24,
		"min":[0.0,
		0.5],
		"max":[0.0,
		0.9776871204376221]
	},
	{
		"bufferView":12,
		"type":"SCALAR",
		"componentType":5123,
		"count":144,
		"byteOffset":0,
		"min":[0],
		"max":[51]
	},
	{
		"bufferView":13,
		"type":"VEC3",
		"componentType":5126,
		"count":52,
		"byteOffset":0,
		"min":[-61.98713684082031,
		147.63294982910157,
		-98.80253601074219],
		"max":[-61.98713684082031,
		159.1298065185547,
		-25.75478744506836]
	},
	{
		"bufferView":13,
		"type":"VEC3",
		"componentType":5126,
		"count":52,
		"byteOffset":12,
		"min":[-1.0,
		0.0,
		0.0],
		"max":[-1.0,
		0.0,
		0.0]
	},
	{
		"bufferView":13,
		"type":"VEC2",
		"componentType":5126,
		"count":52,
		"byteOffset":24,
		"min":[0.0,
		1.0],
		"max":[1.0,
		1.0]
	},
	{
		"bufferView":14,
		"type":"SCALAR",
		"componentType":5123,
		"count":144,
		"byteOffset":0,
		"min":[0],
		"max":[51]
	},
	{
		"bufferView":15,
		"type":"VEC3",
		"componentType":5126,
		"count":52,
		"byteOffset":0,
		"min":[-61.98713684082031,
		147.63294982910157,
		-98.80253601074219],
		"max":[-59.597103118896487,
		159.1298065185547,
		-25.75478744506836]
	},
	{
		"bufferView":15,
		"type":"VEC3",
		"componentType":5126,
		"count":52,
		"byteOffset":12,
		"min":[0.0,
		-1.0,
		-1.0],
		"max":[0.0,
		1.0,
		1.0]
	},
	{
		"bufferView":15,
		"type":"VEC2",
		"componentType":5126,
		"count":52,
		"byteOffset":24,
		"min":[0.0,
		0.0],
		"max":[1.0,
		1.0]
	},
	{
		"bufferView":16,
		"type":"SCALAR",
		"componentType":5123,
		"count":216,
		"byteOffset":0,
		"min":[0],
		"max":[77]
	},
	{
		"bufferView":17,
		"type":"VEC3",
		"componentType":5126,
		"count":78,
		"byteOffset":0,
		"min":[-61.98713684082031,
		141.04969787597657,
		-96.04164123535156],
		"max":[-59.597103118896487,
		147.02476501464845,
		-28.51568031311035]
	},
	{
		"bufferView":17,
		"type":"VEC3",
		"componentType":5126,
		"count":78,
		"byteOffset":12,
		"min":[-1.0,
		-1.0,
		-1.0],
		"max":[0.0,
		1.0,
		1.0]
	},
	{
		"bufferView":17,
		"type":"VEC2",
		"componentType":5126,
		"count":78,
		"byteOffset":24,
		"min":[0.0,
		0.0],
		"max":[1.0,
		1.0]
	},
	{
		"bufferView":18,
		"type":"SCALAR",
		"componentType":5123,
		"count":72,
		"byteOffset":0,
		"min":[0],
		"max":[35]
	},
	{
		"bufferView":19,
		"type":"VEC3",
		"componentType":5126,
		"count":36,
		"byteOffset":0,
		"min":[-57.688777923583987,
		163.36793518066407,
		-86.09953308105469],
		"max":[-1.6156529188156129,
		168.70343017578126,
		-38.45779037475586]
	},
	{
		"bufferView":19,
		"type":"VEC3",
		"componentType":5126,
		"count":36,
		"byteOffset":12,
		"min":[-0.7684375643730164,
		0.639843761920929,
		-0.6930313110351563],
		"max":[0.6510312557220459,
		0.9970625638961792,
		0.6930313110351563]
	},
	{
		"bufferView":19,
		"type":"VEC2",
		"componentType":5126,
		"count":36,
		"byteOffset":24,
		"min":[0.007612956687808037,
		0.49999988079071047],
		"max":[0.2772054672241211,
		0.9518232345581055]
	},
	{
		"bufferView":20,
		"type":"SCALAR",
		"componentType":5123,
		"count":720,
		"byteOffset":0,
		"min":[0],
		"max":[423]
	},
	{
		"bufferView":21,
		"type":"VEC3",
		"componentType":5126,
		"count":424,
		"byteOffset":0,
		"min":[-65.80545806884766,
		136.86941528320313,
		-107.08072662353516],
		"max":[170.40802001953126,
		212.89068603515626,
		-17.476600646972658]
	},
	{
		"bufferView":21,
		"type":"VEC3",
		"componentType":5126,
		"count":424,
		"byteOffset":12,
		"min":[-1.0,
		-1.0,
		-1.0],
		"max":[1.0,
		1.0,
		1.0]
	},
	{
		"bufferView":21,
		"type":"VEC2",
		"componentType":5126,
		"count":424,
		"byteOffset":24,
		"min":[0.0,
		0.0],
		"max":[1.0,
		1.0]
	},
	{
		"bufferView":22,
		"type":"SCALAR",
		"componentType":5123,
		"count":2880,
		"byteOffset":0,
		"min":[0],
		"max":[575]
	},
	{
		"bufferView":23,
		"type":"VEC3",
		"componentType":5126,
		"count":576,
		"byteOffset":0,
		"min":[-30.1361083984375,
		126.74024200439453,
		-103.8665542602539],
		"max":[132.07476806640626,
		158.82891845703126,
		-20.690773010253908]
	},
	{
		"bufferView":23,
		"type":"VEC3",
		"componentType":5126,
		"count":576,
		"byteOffset":12,
		"min":[-0.9229375720024109,
		-0.9179375171661377,
		-1.0],
		"max":[0.9229375720024109,
		0.9179375171661377,
		1.0]
	},
	{
		"bufferView":23,
		"type":"VEC2",
		"componentType":5126,
		"count":576,
		"byteOffset":24,
		"min":[0.0,
		0.0],
		"max":[1.0,
		1.0]
	},
	{
		"bufferView":24,
		"type":"SCALAR",
		"componentType":5123,
		"count":2196,
		"byteOffset":0,
		"min":[0],
		"max":[1009]
	},
	{
		"bufferView":25,
		"type":"VEC3",
		"componentType":5126,
		"count":1010,
		"byteOffset":0,
		"min":[-61.4791259765625,
		134.511962890625,
		-102.75439453125],
		"max":[167.61911010742188,
		212.0768585205078,
		-21.80293083190918]
	},
	{
		"bufferView":25,
		"type":"VEC3",
		"componentType":5126,
		"count":1010,
		"byteOffset":12,
		"min":[-1.0,
		-1.0,
		-1.0],
		"max":[1.0,
		1.0,
		1.0]
	},
	{
		"bufferView":25,
		"type":"VEC2",
		"componentType":5126,
		"count":1010,
		"byteOffset":24,
		"min":[0.0,
		0.0],
		"max":[1.0,
		1.0]
	},
	{
		"bufferView":26,
		"type":"SCALAR",
		"componentType":5123,
		"count":144,
		"byteOffset":0,
		"min":[0],
		"max":[67]
	},
	{
		"bufferView":27,
		"type":"VEC3",
		"componentType":5126,
		"count":68,
		"byteOffset":0,
		"min":[-61.98713684082031,
		148.00379943847657,
		-101.2094955444336],
		"max":[164.9908447265625,
		211.13299560546876,
		-23.347829818725587]
	},
	{
		"bufferView":27,
		"type":"VEC3",
		"componentType":5126,
		"count":68,
		"byteOffset":12,
		"min":[-1.0,
		0.0,
		-0.9702500700950623],
		"max":[0.8932812809944153,
		0.9971563220024109,
		0.9702500700950623]
	},
	{
		"bufferView":27,
		"type":"VEC2",
		"componentType":5126,
		"count":68,
		"byteOffset":24,
		"min":[0.0,
		0.0],
		"max":[1.0,
		1.0]
	}],
	"bufferViews":[{
		"target":34963,
		"buffer":0,
		"byteOffset":0,
		"byteLength":7692
	},
	{
		"target":34962,
		"buffer":0,
		"byteOffset":7692,
		"byteLength":51040,
		"byteStride":32
	},
	{
		"target":34963,
		"buffer":1,
		"byteOffset":0,
		"byteLength":672
	},
	{
		"target":34962,
		"buffer":1,
		"byteOffset":672,
		"byteLength":4928,
		"byteStride":32
	},
	{
		"target":34963,
		"buffer":2,
		"byteOffset":0,
		"byteLength":192
	},
	{
		"target":34962,
		"buffer":2,
		"byteOffset":192,
		"byteLength":1152,
		"byteStride":32
	},
	{
		"target":34963,
		"buffer":3,
		"byteOffset":0,
		"byteLength":96
	},
	{
		"target":34962,
		"buffer":3,
		"byteOffset":96,
		"byteLength":832,
		"byteStride":32
	},
	{
		"target":34963,
		"buffer":4,
		"byteOffset":0,
		"byteLength":864
	},
	{
		"target":34962,
		"buffer":4,
		"byteOffset":864,
		"byteLength":4992,
		"byteStride":32
	},
	{
		"target":34963,
		"buffer":5,
		"byteOffset":0,
		"byteLength":1536
	},
	{
		"target":34962,
		"buffer":5,
		"byteOffset":1536,
		"byteLength":11040,
		"byteStride":32
	},
	{
		"target":34963,
		"buffer":6,
		"byteOffset":0,
		"byteLength":288
	},
	{
		"target":34962,
		"buffer":6,
		"byteOffset":288,
		"byteLength":1664,
		"byteStride":32
	},
	{
		"target":34963,
		"buffer":7,
		"byteOffset":0,
		"byteLength":288
	},
	{
		"target":34962,
		"buffer":7,
		"byteOffset":288,
		"byteLength":1664,
		"byteStride":32
	},
	{
		"target":34963,
		"buffer":8,
		"byteOffset":0,
		"byteLength":432
	},
	{
		"target":34962,
		"buffer":8,
		"byteOffset":432,
		"byteLength":2496,
		"byteStride":32
	},
	{
		"target":34963,
		"buffer":9,
		"byteOffset":0,
		"byteLength":144
	},
	{
		"target":34962,
		"buffer":9,
		"byteOffset":144,
		"byteLength":1152,
		"byteStride":32
	},
	{
		"target":34963,
		"buffer":10,
		"byteOffset":0,
		"byteLength":1440
	},
	{
		"target":34962,
		"buffer":10,
		"byteOffset":1440,
		"byteLength":13568,
		"byteStride":32
	},
	{
		"target":34963,
		"buffer":11,
		"byteOffset":0,
		"byteLength":5760
	},
	{
		"target":34962,
		"buffer":11,
		"byteOffset":5760,
		"byteLength":18432,
		"byteStride":32
	},
	{
		"target":34963,
		"buffer":12,
		"byteOffset":0,
		"byteLength":4392
	},
	{
		"target":34962,
		"buffer":12,
		"byteOffset":4392,
		"byteLength":32320,
		"byteStride":32
	},
	{
		"target":34963,
		"buffer":13,
		"byteOffset":0,
		"byteLength":288
	},
	{
		"target":34962,
		"buffer":13,
		"byteOffset":288,
		"byteLength":2176,
		"byteStride":32
	}],
	"buffers":[{
		"uri":"data:application/octet-stream;base64,",
		"byteLength":58732
	},
	{
		"uri":"data:application/octet-stream;base64,",
		"byteLength":5600
	},
	{
		"uri":"data:application/octet-stream;base64,",
		"byteLength":1344
	},
	{
		"uri":"data:application/octet-stream;base64,",
		"byteLength":928
	},
	{
		"uri":"data:application/octet-stream;base64,",
		"byteLength":5856
	},
	{
		"uri":"data:application/octet-stream;base64,",
		"byteLength":12576
	},
	{
		"uri":"data:application/octet-stream;base64,",
		"byteLength":1952
	},
	{
		"uri":"data:application/octet-stream;base64,",
		"byteLength":1952
	},
	{
		"uri":"data:application/octet-stream;base64,",
		"byteLength":2928
	},
	{
		"uri":"data:application/octet-stream;base64,",
		"byteLength":1296
	},
	{
		"uri":"data:application/octet-stream;base64,",
		"byteLength":15008
	},
	{
		"uri":"data:application/octet-stream;base64,",
		"byteLength":24192
	},
	{
		"uri":"data:application/octet-stream;base64,",
		"byteLength":36712
	},
	{
		"uri":"data:application/octet-stream;base64,",
		"byteLength":2464
	}],
	"materials":[{
		"pbrMetallicRoughness":{
			"baseColorFactor":[0.8,
			0.8,
			0.8,
			1.0],
			"metallicFactor":0.0,
			"roughnessFactor":0.5
		},
		"emissiveFactor":[0.58,
		0.58,
		0.58],
		"alphaMode":"OPAQUE",
		"doubleSided":true,
		"name":"Mat.3"
	},
	{
		"pbrMetallicRoughness":{
			"baseColorFactor":[0.14,
			0.14,
			0.14,
			1.0],
			"metallicFactor":1.0,
			"roughnessFactor":1.0
		},
		"emissiveFactor":[0.0,
		0.0,
		0.0],
		"alphaMode":"OPAQUE",
		"doubleSided":true,
		"name":"Mat"
	},
	{
		"pbrMetallicRoughness":{
			"baseColorFactor":[0.43529411764705885,
			0.4549019607843137,
			0.4627450980392157,
			1.0],
			"metallicFactor":1.0,
			"roughnessFactor":1.0
		},
		"emissiveFactor":[0.0,
		0.0,
		0.0],
		"alphaMode":"OPAQUE",
		"doubleSided":true,
		"name":"Mat.1"
	},
	{
		"pbrMetallicRoughness":{
			"baseColorFactor":[0.4549019607843137,
			0.5882352941176471,
			0.6588235294117647,
			1.0],
			"metallicFactor":1.0,
			"roughnessFactor":1.0
		},
		"emissiveFactor":[0.0,
		0.0,
		0.0],
		"alphaMode":"OPAQUE",
		"doubleSided":true,
		"name":"Mat.1"
	},
	{
		"pbrMetallicRoughness":{
			"baseColorFactor":[1.0,
			0.45999999999999999,
			0.45999999999999999,
			1.0],
			"metallicFactor":1.0,
			"roughnessFactor":1.0
		},
		"emissiveFactor":[0.0,
		0.0,
		0.0],
		"alphaMode":"OPAQUE",
		"doubleSided":true,
		"name":"Mat.2"
	},
	{
		"pbrMetallicRoughness":{
			"baseColorFactor":[0.5700000000000001,
			0.5700000000000001,
			0.5700000000000001,
			1.0],
			"metallicFactor":0.0,
			"roughnessFactor":0.5
		},
		"emissiveFactor":[0.0,
		0.0,
		0.0],
		"alphaMode":"OPAQUE",
		"doubleSided":true,
		"name":"Mat.1"
	},
	{
		"pbrMetallicRoughness":{
			"baseColorFactor":[0.4823529411764706,
			0.803921568627451,
			0.3294117647058823,
			1.0],
			"metallicFactor":1.0,
			"roughnessFactor":1.0
		},
		"emissiveFactor":[0.0,
		0.0,
		0.0],
		"alphaMode":"OPAQUE",
		"doubleSided":true,
		"name":"Mat.1"
	},
	{
		"pbrMetallicRoughness":{
			"baseColorFactor":[0.8,
			0.8,
			0.8,
			0.08999999999999997],
			"metallicFactor":1.0,
			"roughnessFactor":0.0
		},
		"emissiveFactor":[0.0,
		0.0,
		0.0],
		"alphaMode":"BLEND",
		"doubleSided":true,
		"name":"Mat.4"
	}]
}